<?xml version="1.0" encoding="utf-8"?>
<!-- Generator: Adobe Illustrator 25.2.1, SVG Export Plug-In . SVG Version: 6.00 Build 0)  -->
<svg version="1.1" id="Layer_1" xmlns="http://www.w3.org/2000/svg" xmlns:xlink="http://www.w3.org/1999/xlink" x="0px" y="0px"
	 viewBox="0 0 468.98 119.92" style="enable-background:new 0 0 468.98 119.92;" xml:space="preserve">
<style type="text/css">
	.st0{fill:#FFB400;}
</style>
<g>
	<path d="M56.96,24.98v21.15c0,13.82-9.33,23.32-23.32,23.32H16.32v48.8H0V1.67h33.64C47.63,1.67,56.96,11.16,56.96,24.98z
		 M28.98,54.79c8.66,0,11.66-3.16,11.66-11.49V27.81c0-8.33-3-11.49-11.66-11.49H16.32v38.47H28.98z"/>
	<path d="M117.91,62.12c4.83,3.16,7.66,8.49,7.66,16.16v39.97h-16.32V81.11c0-8.49-3-11.66-11.66-11.66H84.94v48.8H68.61V1.67h33.64
		c13.99,0,23.32,9.49,23.32,23.32v20.98C125.57,53.63,122.74,58.96,117.91,62.12z M97.59,54.79c8.66,0,11.66-3.16,11.66-11.66V27.81
		c0-8.33-3-11.49-11.66-11.49H84.94v38.47H97.59z"/>
	<path d="M193.02,23.32V96.6c0,13.99-9.49,23.32-27.98,23.32c-18.32,0-27.81-9.33-27.81-23.32V23.32C137.23,9.49,146.72,0,165.04,0
		C183.2,0,193.02,9.83,193.02,23.32z M165.04,105.26c7.66,0,11.66-4,11.66-11.49V26.15c0-7.49-4-11.49-11.66-11.49
		c-7.16,0-11.49,4-11.49,11.49v67.62C153.55,101.26,157.55,105.26,165.04,105.26z"/>
	<path class="st0" d="M232.49,14.66c-7.16,0-11.49,4-11.49,11.49v16.32c0,12.32,39.47,12.32,39.47,34.98V96.6
		c0,13.99-9.49,23.32-27.98,23.32c-18.32,0-27.81-9.33-27.81-23.32V77.45H221v16.32c0,7.49,4,11.49,11.49,11.49
		c7.66,0,11.66-4,11.66-11.49V77.45c0-10.49-39.47-9.49-39.47-34.98V23.32C204.68,9.49,214.17,0,232.49,0
		c18.15,0,27.98,9.83,27.98,23.32v19.15h-16.32V26.15C244.15,18.65,240.15,14.66,232.49,14.66z"/>
	<path class="st0" d="M287.62,90.44l-4.16,27.65h-16.32L287.12,1.67h20.82l19.99,116.42H311.6l-4.16-27.65H287.62z M305.27,75.95
		l-7.83-50.96l-7.66,50.96H305.27z"/>
	<path class="st0" d="M350.91,52.63h30.64v14.49h-30.64v50.96h-16.32V1.67h51.96v14.49h-35.64V52.63z"/>
	<path class="st0" d="M410.36,50.96H441v14.49h-30.64v38.14H446v14.66h-51.96V1.67H446v14.49h-35.64V50.96z"/>
	<path class="st0" d="M468.98,118.25h-16.32v-16.32h16.32V118.25z"/>
</g>
</svg>
